<svg version="1.1" id="Layer_1" xmlns="http://www.w3.org/2000/svg" xmlns:xlink="http://www.w3.org/1999/xlink" x="0px" y="0px"
	 width="100%" viewBox="0 0 512 512" enable-background="new 0 0 512 512" xml:space="preserve">
<path fill="#000000" opacity="1.000000" stroke="none" 
	d="
M513.000000,288.000000 
	C513.000000,297.354218 513.000000,306.708466 512.605896,316.678680 
	C511.474152,321.604523 510.934265,325.959381 509.965424,330.216614 
	C505.125824,351.482971 494.063385,369.345245 478.763306,384.481140 
	C472.710175,390.469330 465.533447,395.526215 458.268219,400.041534 
	C443.567291,409.178162 427.333496,414.586304 410.088593,415.874878 
	C392.072479,417.221130 374.340698,415.110992 357.433014,408.156311 
	C346.368622,447.336212 309.516846,456.956757 285.416016,449.739960 
	C261.381775,442.543060 235.725189,416.378448 247.835739,374.290405 
	C212.598984,374.290405 177.382721,374.290405 142.179428,374.290405 
	C144.389069,383.327911 146.396286,391.855225 145.261978,401.260895 
	C143.717590,414.066895 139.034760,425.113617 130.244705,434.071655 
	C114.423203,450.195374 95.039795,455.813416 73.172935,449.860443 
	C50.916473,443.801392 34.850853,425.347931 32.200684,402.750580 
	C29.836388,382.590759 35.871315,364.915771 52.023125,351.416595 
	C62.216915,342.896973 73.822777,338.090271 87.028946,338.062897 
	C153.192200,337.925659 219.355881,338.000000 285.519409,338.000000 
	C287.309479,338.000000 289.099518,338.000000 291.365479,338.000000 
	C290.048462,332.662201 288.868927,327.881409 287.652893,322.952881 
	C204.744003,322.952881 122.114014,322.952881 39.219845,322.952881 
	C38.109577,316.103577 37.161621,309.402679 35.917259,302.757263 
	C33.361511,289.108521 30.600578,275.498352 28.011225,261.855743 
	C25.509651,248.675659 23.179979,235.462875 20.660803,222.286240 
	C17.841297,207.538742 14.859518,192.822342 12.011171,178.080261 
	C9.009020,162.542145 6.114876,146.983093 3.082340,131.450989 
	C2.652431,129.249069 1.706886,127.147835 1.000000,125.000000 
	C1.000000,121.969406 1.000000,118.938812 1.468657,115.454109 
	C26.100348,115.000000 50.263382,115.000000 74.426414,115.000000 
	C170.078476,115.000000 265.730560,114.982811 361.382538,115.067902 
	C364.916290,115.071045 366.270782,114.290565 367.165253,110.491341 
	C370.981110,94.283836 375.382019,78.214081 379.502594,62.351601 
	C410.115570,62.351601 440.514801,62.351601 470.645905,62.351601 
	C470.645905,74.445534 470.645905,86.186310 470.645905,98.000000 
	C450.798706,98.000000 431.305084,98.060661 411.812714,97.930893 
	C409.067474,97.912613 407.669586,98.651825 406.980896,101.343735 
	C400.728424,125.782738 394.365875,150.193588 388.125824,174.635727 
	C386.848907,179.637360 385.949554,184.735397 384.766113,190.307114 
	C386.660767,189.641220 387.566101,189.031525 388.454346,189.055435 
	C398.701508,189.331345 409.180420,188.442352 419.145630,190.295059 
	C445.082520,195.117218 467.349030,207.031006 484.941040,227.289383 
	C495.370667,239.299789 503.264313,252.573257 507.941223,267.703278 
	C509.997223,274.354553 511.335724,281.227631 513.000000,288.000000 
M163.500000,287.000000 
	C204.625061,287.000000 245.750122,287.000000 286.888275,287.000000 
	C287.471497,283.718903 287.863373,280.817719 288.514191,277.975830 
	C291.069519,266.817566 295.285950,256.359161 300.887848,246.324173 
	C310.508636,229.089905 324.046753,215.814682 340.415588,205.137680 
	C341.800781,204.234177 343.510040,202.936356 343.884674,201.510590 
	C348.281219,184.777802 352.451141,167.985458 356.673218,151.239288 
	C252.433044,151.239288 148.415894,151.239288 44.707840,151.239288 
	C44.845047,153.424210 44.760460,155.426285 45.125523,157.342682 
	C47.360397,169.074692 49.775185,180.772629 51.979370,192.510223 
	C54.485313,205.854675 56.794670,219.235962 59.260216,232.588150 
	C62.134247,248.152496 65.216675,263.679626 67.946053,279.268860 
	C69.291420,286.953125 69.023949,287.000000 77.025871,287.000000 
	C105.517250,287.000000 134.008621,287.000000 163.500000,287.000000 
M433.986267,371.518372 
	C447.024017,365.424316 457.374695,356.127899 464.911957,344.026154 
	C474.995148,327.836731 479.077423,310.268921 476.080048,291.091705 
	C472.751068,269.792877 462.592224,252.558304 445.257050,240.203049 
	C428.874512,228.526703 410.525635,222.911179 389.900726,225.827194 
	C380.461151,227.161804 371.601410,229.857925 363.490265,234.341553 
	C347.726318,243.055420 336.038940,255.684082 328.765625,272.478882 
	C322.073120,287.932617 320.809326,303.680573 324.449615,319.888885 
	C328.037872,335.865631 336.361115,349.056763 348.493439,360.078186 
	C362.103394,372.441864 378.171814,378.704590 396.236725,379.920380 
	C409.264374,380.797180 421.616241,377.584167 433.986267,371.518372 
M288.041718,379.435699 
	C284.079193,383.435822 281.266357,388.152954 281.069580,393.812347 
	C280.643677,406.061249 291.016022,417.608276 305.154144,414.995697 
	C312.938385,413.557251 318.410736,409.189484 320.946747,401.665985 
	C323.461334,394.206146 322.207397,387.245911 316.815094,381.372009 
	C310.560242,374.558411 299.672760,371.076080 288.041718,379.435699 
M72.480324,406.993408 
	C76.438095,413.899963 88.198395,418.734314 98.804596,412.758667 
	C108.109840,407.515961 111.966766,395.354248 106.685112,385.295135 
	C101.775124,375.943878 90.282478,371.884369 80.647896,376.100891 
	C69.535866,380.963898 63.620777,395.655487 72.480324,406.993408 
z"/>
<path fill="#FFFFFF" opacity="1.000000" stroke="none" 
	d="
M513.000000,287.531342 
	C511.335724,281.227631 509.997223,274.354553 507.941223,267.703278 
	C503.264313,252.573257 495.370667,239.299789 484.941040,227.289383 
	C467.349030,207.031006 445.082520,195.117218 419.145630,190.295059 
	C409.180420,188.442352 398.701508,189.331345 388.454346,189.055435 
	C387.566101,189.031525 386.660767,189.641220 384.766113,190.307114 
	C385.949554,184.735397 386.848907,179.637360 388.125824,174.635727 
	C394.365875,150.193588 400.728424,125.782738 406.980896,101.343735 
	C407.669586,98.651825 409.067474,97.912613 411.812714,97.930893 
	C431.305084,98.060661 450.798706,98.000000 470.645905,98.000000 
	C470.645905,86.186310 470.645905,74.445534 470.645905,62.351601 
	C440.514801,62.351601 410.115570,62.351601 379.502594,62.351601 
	C375.382019,78.214081 370.981110,94.283836 367.165253,110.491341 
	C366.270782,114.290565 364.916290,115.071045 361.382538,115.067902 
	C265.730560,114.982811 170.078476,115.000000 74.426414,115.000000 
	C50.263382,115.000000 26.100348,115.000000 1.468657,115.000000 
	C1.000000,77.018196 1.000000,39.036400 1.000000,1.027299 
	C171.566727,1.027299 342.133453,1.027299 513.000000,1.027299 
	C513.000000,96.354019 513.000000,191.708344 513.000000,287.531342 
z"/>
<path fill="#FFFFFF" opacity="1.000000" stroke="none" 
	d="
M1.000000,125.468658 
	C1.706886,127.147835 2.652431,129.249069 3.082340,131.450989 
	C6.114876,146.983093 9.009020,162.542145 12.011171,178.080261 
	C14.859518,192.822342 17.841297,207.538742 20.660803,222.286240 
	C23.179979,235.462875 25.509651,248.675659 28.011225,261.855743 
	C30.600578,275.498352 33.361511,289.108521 35.917259,302.757263 
	C37.161621,309.402679 38.109577,316.103577 39.219845,322.952881 
	C122.114014,322.952881 204.744003,322.952881 287.652893,322.952881 
	C288.868927,327.881409 290.048462,332.662201 291.365479,338.000000 
	C289.099518,338.000000 287.309479,338.000000 285.519409,338.000000 
	C219.355881,338.000000 153.192200,337.925659 87.028946,338.062897 
	C73.822777,338.090271 62.216915,342.896973 52.023125,351.416595 
	C35.871315,364.915771 29.836388,382.590759 32.200684,402.750580 
	C34.850853,425.347931 50.916473,443.801392 73.172935,449.860443 
	C95.039795,455.813416 114.423203,450.195374 130.244705,434.071655 
	C139.034760,425.113617 143.717590,414.066895 145.261978,401.260895 
	C146.396286,391.855225 144.389069,383.327911 142.179428,374.290405 
	C177.382721,374.290405 212.598984,374.290405 247.835739,374.290405 
	C235.725189,416.378448 261.381775,442.543060 285.416016,449.739960 
	C309.516846,456.956757 346.368622,447.336212 357.433014,408.156311 
	C374.340698,415.110992 392.072479,417.221130 410.088593,415.874878 
	C427.333496,414.586304 443.567291,409.178162 458.268219,400.041534 
	C465.533447,395.526215 472.710175,390.469330 478.763306,384.481140 
	C494.063385,369.345245 505.125824,351.482971 509.965424,330.216614 
	C510.934265,325.959381 511.474152,321.604523 512.605896,317.147339 
	C513.000000,382.307251 513.000000,447.614502 513.000000,512.960876 
	C342.427551,512.960876 171.855103,512.960876 1.000000,512.960876 
	C1.000000,383.979248 1.000000,254.958282 1.000000,125.468658 
z"/>
<path fill="#FFFFFF" opacity="1.000000" stroke="none" 
	d="
M163.000000,287.000000 
	C134.008621,287.000000 105.517250,287.000000 77.025871,287.000000 
	C69.023949,287.000000 69.291420,286.953125 67.946053,279.268860 
	C65.216675,263.679626 62.134247,248.152496 59.260216,232.588150 
	C56.794670,219.235962 54.485313,205.854675 51.979370,192.510223 
	C49.775185,180.772629 47.360397,169.074692 45.125523,157.342682 
	C44.760460,155.426285 44.845047,153.424210 44.707840,151.239288 
	C148.415894,151.239288 252.433044,151.239288 356.673218,151.239288 
	C352.451141,167.985458 348.281219,184.777802 343.884674,201.510590 
	C343.510040,202.936356 341.800781,204.234177 340.415588,205.137680 
	C324.046753,215.814682 310.508636,229.089905 300.887848,246.324173 
	C295.285950,256.359161 291.069519,266.817566 288.514191,277.975830 
	C287.863373,280.817719 287.471497,283.718903 286.888275,287.000000 
	C245.750122,287.000000 204.625061,287.000000 163.000000,287.000000 
z"/>
<path fill="#FFFFFF" opacity="1.000000" stroke="none" 
	d="
M433.670563,371.743103 
	C421.616241,377.584167 409.264374,380.797180 396.236725,379.920380 
	C378.171814,378.704590 362.103394,372.441864 348.493439,360.078186 
	C336.361115,349.056763 328.037872,335.865631 324.449615,319.888885 
	C320.809326,303.680573 322.073120,287.932617 328.765625,272.478882 
	C336.038940,255.684082 347.726318,243.055420 363.490265,234.341553 
	C371.601410,229.857925 380.461151,227.161804 389.900726,225.827194 
	C410.525635,222.911179 428.874512,228.526703 445.257050,240.203049 
	C462.592224,252.558304 472.751068,269.792877 476.080048,291.091705 
	C479.077423,310.268921 474.995148,327.836731 464.911957,344.026154 
	C457.374695,356.127899 447.024017,365.424316 433.670563,371.743103 
M382.000000,274.466339 
	C382.000000,277.573090 382.000000,280.679871 382.000000,284.155548 
	C371.045105,284.155548 360.636261,284.155548 350.276245,284.155548 
	C350.276245,296.624451 350.276245,308.694092 350.276245,321.156250 
	C360.955627,321.156250 371.364441,321.156250 382.157227,321.156250 
	C382.157227,331.956635 382.157227,342.365448 382.157227,352.722778 
	C394.292999,352.722778 406.029480,352.722778 418.158203,352.722778 
	C418.158203,342.042389 418.158203,331.633606 418.158203,320.840820 
	C428.958618,320.840820 439.367401,320.840820 449.721924,320.840820 
	C449.721924,308.371857 449.721924,296.302155 449.721924,283.840118 
	C439.040649,283.840118 428.631897,283.840118 417.839111,283.840118 
	C417.839111,273.039673 417.839111,262.630859 417.839111,252.279053 
	C405.703308,252.279053 393.966797,252.279053 382.000000,252.279053 
	C382.000000,259.529419 382.000000,266.503204 382.000000,274.466339 
z"/>
<path fill="#FFFFFF" opacity="1.000000" stroke="none" 
	d="
M288.321289,379.185242 
	C299.672760,371.076080 310.560242,374.558411 316.815094,381.372009 
	C322.207397,387.245911 323.461334,394.206146 320.946747,401.665985 
	C318.410736,409.189484 312.938385,413.557251 305.154144,414.995697 
	C291.016022,417.608276 280.643677,406.061249 281.069580,393.812347 
	C281.266357,388.152954 284.079193,383.435822 288.321289,379.185242 
z"/>
<path fill="#FFFFFF" opacity="1.000000" stroke="none" 
	d="
M72.218246,406.713013 
	C63.620777,395.655487 69.535866,380.963898 80.647896,376.100891 
	C90.282478,371.884369 101.775124,375.943878 106.685112,385.295135 
	C111.966766,395.354248 108.109840,407.515961 98.804596,412.758667 
	C88.198395,418.734314 76.438095,413.899963 72.218246,406.713013 
z"/>
<path fill="#000000" opacity="1.000000" stroke="none" 
	d="
M382.000000,273.971680 
	C382.000000,266.503204 382.000000,259.529419 382.000000,252.279053 
	C393.966797,252.279053 405.703308,252.279053 417.839111,252.279053 
	C417.839111,262.630859 417.839111,273.039673 417.839111,283.840118 
	C428.631897,283.840118 439.040649,283.840118 449.721924,283.840118 
	C449.721924,296.302155 449.721924,308.371857 449.721924,320.840820 
	C439.367401,320.840820 428.958618,320.840820 418.158203,320.840820 
	C418.158203,331.633606 418.158203,342.042389 418.158203,352.722778 
	C406.029480,352.722778 394.292999,352.722778 382.157227,352.722778 
	C382.157227,342.365448 382.157227,331.956635 382.157227,321.156250 
	C371.364441,321.156250 360.955627,321.156250 350.276245,321.156250 
	C350.276245,308.694092 350.276245,296.624451 350.276245,284.155548 
	C360.636261,284.155548 371.045105,284.155548 382.000000,284.155548 
	C382.000000,280.679871 382.000000,277.573090 382.000000,273.971680 
z"/>
</svg>